<svg xmlns="http://www.w3.org/2000/svg" xmlns:xlink="http://www.w3.org/1999/xlink" version="1.1" id="Layer_1" x="0px" y="0px" viewBox="-295.4 395.8 172.1 75.3" enable-background="new -295.4 395.8 172.1 75.3" xml:space="preserve">
<g>
	<path fill="#004B84" d="M-204.1 459.4c0-2.2 1.5-3.9 3.2-3.9c2.1 0 3.9 2.5 3.9 5.3c0 2.5-1.7 4.1-3.2 4.1 C-202.4 464.9-204.1 462.5-204.1 459.4 M-206 460.3c0 3 2.4 5.3 5.6 5.3c3 0 5.4-2.3 5.4-5.3c0-3-2.4-5.3-5.5-5.3 C-203.2 454.9-206 456.8-206 460.3"/>
	<path fill="#004B84" d="M-183.3 465.4l-3-7.2l-3 7.2h-0.7l-3.8-8.5c-0.4-0.8-0.4-1.2-1.6-1.3v-0.5h4.3v0.5 c-1.5 0.1-1.3 0.5-0.7 1.7l2.7 6.1l2.5-5.9c-0.6-1.3-1-1.8-1.9-1.9l-0.3-0.1v-0.5h4.6v0.5c-1.2 0-1.3 0.4-0.8 1.7l2.5 6l2.4-5.9 c0.6-1.3 0.4-1.8-1.2-1.8v-0.5h3.6v0.5c-1 0.1-1.2 0.6-1.8 1.8l-3.3 8L-183.3 465.4L-183.3 465.4z"/>
	<path fill="#004B84" d="M-170.8 458.1c0.6-2.4 1.9-2.7 2.7-2.7c1.2 0 2.2 1.1 2.5 2.7H-170.8z M-163.5 458.8c0 0-0.8-3.9-4.2-3.9 c-3.1 0-4.9 2.7-4.9 5.4c0 2.9 1.9 5.2 4.4 5.2c1.9 0 3.5-1.3 4.5-2.6l-0.3-0.3c-1 1.1-2 1.7-3.2 1.7c-2 0-3.9-1.8-3.9-4.4 c0-0.3 0.1-0.7 0.1-1.1L-163.5 458.8L-163.5 458.8z"/>
	<path fill="#004B84" d="M-144.1 458.8c0 1.7-1 3-2.4 3c-1.9 0-2.7-2-2.7-3.5c0-2.4 1.5-2.9 2.5-2.9 C-145.2 455.4-144.1 456.6-144.1 458.8 M-143.6 455.9c-0.7-0.7-1.7-1-2.8-1c-2.5 0-4.5 1.7-4.5 3.9c0 1.4 0.9 2.5 2.4 3.1 c-0.9 0.7-2.6 0.7-2.6 1.9c0 0.8 1 1.7 2.4 1.8c-1.3 0.5-2.7 1.6-2.7 3.1c0 1.2 1.3 2.4 3.9 2.4c4.7 0 6.9-2.5 6.9-4.2 c0-0.5-0.2-1.2-0.8-1.8c-0.8-0.8-1.8-0.9-4.6-0.9c-2.5 0-3.6-0.3-3.6-0.9c0-0.6 1.1-0.9 1.5-1.3c0.5 0.2 0.7 0.2 1.2 0.2 c2.8 0 4.4-1.8 4.4-3.7c0-0.8-0.3-1.3-0.4-1.6c1.7-0.3 1.6-1.3 1.6-1.3L-143.6 455.9L-143.6 455.9z M-149.8 467.9 c0-1 0.9-1.8 1.6-2.2c0.7 0.1 3.9 0.1 4.6 0.2c0.9 0.1 1.7 0.6 1.7 1.5c0 1.6-2 3-4.2 3C-148.2 470.4-149.8 469.1-149.8 467.9"/>
	<path fill="#004B84" d="M-138.9 458.1c0.6-2.4 1.9-2.7 2.7-2.7c1.2 0 2.2 1.1 2.5 2.7H-138.9z M-131.6 458.8c0 0-0.8-3.9-4.2-3.9 c-3.1 0-4.9 2.7-4.9 5.4c0 2.9 1.9 5.2 4.4 5.2c1.9 0 3.4-1.3 4.5-2.6l-0.3-0.3c-1 1.1-2 1.7-3.2 1.7c-2 0-3.9-1.8-3.9-4.4 c0-0.3 0.1-0.7 0.1-1.1L-131.6 458.8L-131.6 458.8z"/>
	<path fill="#004B84" d="M-275.7 463.2c0 1 0.5 1.5 1.5 1.5h0.1v0.5h-5.1v-0.5c0.3 0 0.2 0 0.5 0c1-0.1 1.3-0.7 1.3-1.7v-11.6 c0-0.7-0.1-1.2-0.9-1l-0.7 0.2v-0.4l2.9-1h0.4L-275.7 463.2L-275.7 463.2z"/>
	<path fill="#004B84" d="M-238.5 463.2c0 1 0.5 1.5 1.5 1.5h0.1v0.5h-5.1v-0.5c0.3 0 0.2 0 0.5 0c1-0.1 1.3-0.7 1.3-1.7v-11.6 c0-0.7-0.1-1.2-0.9-1l-0.7 0.2v-0.4l2.9-1h0.4L-238.5 463.2L-238.5 463.2z"/>
	<path fill="#004B84" d="M-174.2 463.2c0 1 0.5 1.5 1.5 1.5h0.1v0.5h-5.1v-0.5c0.3 0 0.2 0 0.5 0c1-0.1 1.3-0.7 1.3-1.7v-11.6 c0-0.7-0.1-1.2-0.9-1l-0.7 0.2v-0.4l2.9-1h0.4L-174.2 463.2L-174.2 463.2z"/>
	<path fill="#004B84" d="M-272.1 459.4c0-2.2 1.5-3.9 3.2-3.9c2.1 0 3.9 2.5 3.9 5.4c0 2.5-1.7 4.1-3.2 4.1 C-270.3 464.9-272.1 462.5-272.1 459.4 M-274 460.3c0 3 2.4 5.3 5.6 5.3c3 0 5.4-2.3 5.4-5.3c0-3-2.4-5.3-5.5-5.3 C-271.1 454.9-274 456.8-274 460.3"/>
	<path fill="#004B84" d="M-259.9 457.2c1.1-0.8 2.1-1.2 2.8-1.2c2 0 3.5 1.9 3.5 4.4s-1.4 4.3-3.5 4.3c-1.9 0-2.8-1.4-2.8-2.7 L-259.9 457.2L-259.9 457.2z M-259.9 449.1h-0.4l-2.7 1v0.4l0.5-0.1c0.9-0.1 0.9 0.2 0.9 1.5V465c1.6 0.3 2.6 0.5 3.8 0.5 c3.4 0 5.9-2.5 5.9-5.7c0-2.7-1.9-4.9-4.2-4.9c-0.9 0-2 0.5-3.8 1.8L-259.9 449.1L-259.9 449.1z"/>
	<path fill="#004B84" d="M-245.4 463.5c-2.7 2.2-3.9 0.5-4.1-0.4c-0.2-1 0.2-2.6 1.8-3.2c0.6-0.3 1.7-0.6 2.3-0.8 C-245.4 459.1-245.4 463.5-245.4 463.5z M-249.6 458c0.5-0.5 0.6-1 0.6-1.1c0-0.5 0.8-1.2 1.6-1.2c0.6 0 1.1 0.3 1.5 0.7 c0.4 0.5 0.4 0.9 0.4 1.6v0.7c-2.6 0.5-5.8 1-5.8 4.5c0 1.2 1.2 2.4 2.8 2.4c0.7 0 1.2-0.1 3-1.5c0 0.4 0.1 1.5 1.2 1.5 c0.5 0 0.9 0 2-1l-0.1-0.4c-0.7 0.5-1.4 1.1-1.4-2.3v-3.4c0-1.3 0-1.6-0.4-2.2c-0.7-1-2-1.3-2.8-1.3c-1.7 0-3.9 2.1-3.9 2.9 C-250.7 458.5-249.9 458.2-249.6 458"/>
	<path fill="#004B84" d="M-280.5 458.4h-5.1v0.5h0.9c1.5 0 2 0.5 2 1.9v3.2c-1.4 0.7-2.7 1-3.9 1c-2.9 0-6.6-2.3-6.6-7.5 c0-4.1 2.3-7.8 6.7-7.8c2.4 0 4.5 1 5.2 4.2h0.5v-4.1h-0.4c-0.2 0.1-0.4 0.2-0.6 0.2c-0.5 0-2.3-0.9-5-0.9c-6.2 0-8.9 4.8-8.9 8.6 c0 3.7 2.6 8 8.1 8c1.1 0 4.3-0.3 6.8-1.6L-280.5 458.4L-280.5 458.4z"/>
	<path fill="#004B84" d="M-206 464.7c-1 0-1.3-0.3-1.3-1c0-1-0.1-1.7-0.1-5c0-2.5-1-3.8-2.7-3.8c-1.2 0-2.7 0.9-4.4 2v-2h-0.4 l-2.6 1.1v0.4l0.5-0.1c0.9-0.2 0.8 0.6 0.8 1.5v5.3c0 0.7-0.3 1.3-0.9 1.5c-0.7 0.2-1.2-0.3-1.5-0.6c-0.3-0.3-0.6-0.7-1.1-1.2 l-5.7-7.4l0 0l5.2-4.7c0.7-0.6 1.4-0.8 3-0.8v-0.5h-6v0.5c1.4 0 1.6 0.3 1.4 0.8c-0.1 0.4-1.2 1.4-1.2 1.4l-5.4 4.9v-4.6h0v-0.4 c0-1.5 0.4-2 2-2h0.3v-0.5h-6.2v0.5h0.1c1.3 0 2 0.3 2 1.8v11.1c0 1.3-0.4 1.9-2 1.9h-0.1v0.5h6.3v-0.5h0c-1.6 0-2.3-0.5-2.3-2.1 V459h0v-0.9l1.6-1.4l5.4 6.9c0.1 0.2 0.2 0.3 0.2 0.4c0 0.5-0.2 0.7-1.3 0.7v0.5h4.8h2.3h2.5v-0.5c-1.4 0-1.4-0.3-1.4-1.7v-5.5 c1.3-0.9 2.6-1.6 3.4-1.6c1 0 2 0.6 2 2.7c0 3.4 0.3 5.2-0.2 5.7c-0.3 0.3-0.4 0.5-1.1 0.5v0.5h4.5L-206 464.7L-206 464.7z"/>
	<path fill="#004B84" d="M-152.9 449.1h-0.4l-2.7 1v0.4l0.5-0.1c0.8-0.1 0.9 0.1 0.9 1.1h0v3.7c-3.4-1.1-8 0.6-8 5.3 c0 3.2 2.6 5 5.9 5c1.1 0 2.1-0.2 3.8-0.5v-13.1C-152.9 451.8-152.9 449.1-152.9 449.1 M-154.6 462.1c0 1.3-0.8 2.7-2.8 2.7 c-2.1 0-3.5-1.8-3.5-4.3c0-4.4 4-5.6 6.3-4.7L-154.6 462.1L-154.6 462.1z"/>
	<g>
		<g>
			<defs>
				<path id="SVGID_1_" d="M-282.8 418.2c0 9.9 8.1 18 18 18c9.9 0 18-8.1 18-18c0-10-8.1-18-18-18 C-274.7 400.2-282.8 408.2-282.8 418.2"/>
			</defs>
			<clipPath id="SVGID_2_">
				<use xlink:href="#SVGID_1_" overflow="visible"/>
			</clipPath>
			
				<radialGradient id="SVGID_3_" cx="-813.6" cy="451.2" r="1" gradientTransform="matrix(21.8864 0 0 21.8864 17547.8887 -9463.8916)" gradientUnits="userSpaceOnUse">
				<stop offset="0" style="stop-color:#F9F2E9"/>
				<stop offset="0.2584" style="stop-color:#F9F2E9"/>
				<stop offset="0.9382" style="stop-color:#BB850E"/>
				<stop offset="1" style="stop-color:#BB850E"/>
			</radialGradient>
			<rect x="-282.8" y="400.2" clip-path="url(#SVGID_2_)" fill="url(#SVGID_3_)" width="36" height="36"/>
		</g>
	</g>
	<path fill="#004B84" d="M-276.7 437.1c3.5 1.3 7.6 2.1 12 2.1c4.5 0 8.7-0.8 12.2-2.2c-3.5 2.3-7.7 3.6-12.2 3.6 C-269.2 440.6-273.3 439.3-276.7 437.1"/>
	<path fill="#004B84" d="M-283.7 406.1c-1.3 3.5-2.1 7.6-2.1 12c0 4.5 0.8 8.7 2.2 12.2c-2.3-3.5-3.6-7.7-3.6-12.2 C-287.2 413.7-285.9 409.6-283.7 406.1"/>
	<path fill="#004B84" d="M-245.1 407.4c0.6 1 1 2 1.4 3.1c0 0-1-2.2-10.8-3c0 0-0.4-3.2-0.5-3.9 C-254.9 403.6-246.7 404.7-245.1 407.4"/>
	<path fill="#004B84" d="M-264.2 417.3v-5c0 0 4.9-0.1 12.5 0.4c7.6 0.5 9 1.6 9 1.6c0.2 1.1 0.3 2.2 0.3 3.4c0 0-4.1-0.3-8.1-0.3 L-264.2 417.3L-264.2 417.3z"/>
	<path fill="#004B84" d="M-274.6 422.8l0.2 4.7c0 0 1.4 0.5 15.4 0.1c14-0.4 15.6-2.7 15.6-2.7c0.4-1.1 0.6-2.3 0.8-3.5 c0 0-0.5 0.8-6 1.1C-254.1 422.9-263.2 423.2-274.6 422.8"/>
	<path fill="#004B84" d="M-247.4 432.4c0.4-0.3 1.6-2.1 2.3-3.3c0 0-3.3 3.6-20.2 3.6c-10.1 0-16-1.9-16-1.9 c0.1 0.7 1.1 2.9 1.1 2.9c7.8 3.3 19.3 2.9 25.3 1.7C-249.1 434.2-247.8 432.7-247.4 432.4"/>
	<path fill="#004B84" d="M-255.5 400.9c1.3 0.2 3.5 0.9 3.5 0.9c-1.3-3-2.7-3.6-2.7-3.6c-0.9-0.4-1.7-0.8-2.7-1.1 C-257.4 397-256.2 397.9-255.5 400.9"/>
	<path fill="#004B84" d="M-259.6 408.3c0-1.5-0.3-7.1-0.7-9.3c-0.3-2.2-0.9-2.9-0.9-2.9c-1.1-0.2-2.2-0.3-3.3-0.3 c0 0 0.2 7.2 0.2 12.5C-264.3 408.3-259.6 408.3-259.6 408.3z"/>
	<path fill="#004B84" d="M-274.7 418.5c0-8.5 0.5-13.2 1.3-17.2c0.8-4 2.1-4.5 2.1-4.5c1-0.3 2-0.5 3.1-0.7c0 0-0.6 0.6-0.9 2.6 c-0.3 2-0.9 10.5-0.9 19.9L-274.7 418.5z"/>
	<path fill="#004B84" d="M-282.3 427.4l3.3 0.6c-0.7-4.7-0.9-13.5 0.2-20.9c1.1-7.4 3.4-8.6 3.4-8.6c-1.2 0.7-3.1 1.9-3.5 2.3 c-0.4 0.4-2.2 1.7-3.5 8.9C-283.6 416.2-283.1 420.6-282.3 427.4"/>
	<path fill="#004B84" d="M-127.8 463.2c0-1.2 1-2.2 2.2-2.2c1.2 0 2.2 1 2.2 2.2c0 1.2-1 2.2-2.2 2.2 C-126.8 465.4-127.8 464.4-127.8 463.2 M-123.9 463.2c0-1-0.8-1.8-1.7-1.8c-0.9 0-1.7 0.8-1.7 1.8c0 1 0.8 1.8 1.7 1.8 C-124.6 465-123.9 464.3-123.9 463.2 M-126.4 461.9h0.9c0.6 0 0.9 0.2 0.9 0.7c0 0.4-0.2 0.6-0.7 0.7l0.7 1.1h-0.5l-0.7-1.1h-0.3 v1.1h-0.5L-126.4 461.9L-126.4 461.9z M-126 463h0.4c0.3 0 0.5 0 0.5-0.4c0-0.3-0.3-0.3-0.5-0.3h-0.4L-126 463L-126 463z"/>
</g>
</svg>
